<?xml version="1.0" encoding="UTF-8"?>
<svg xmlns="http://www.w3.org/2000/svg" viewBox="0 0 2305 926">
  <defs>
    <!-- V gradient: cyan to purple (coordinates in path space = viewBox * 10) -->
    <linearGradient id="gradV" x1="400" y1="0" x2="8000" y2="0" gradientUnits="userSpaceOnUse">
      <stop offset="0%" stop-color="#10BBFF"/>
      <stop offset="40%" stop-color="#3FA4FF"/>
      <stop offset="70%" stop-color="#6D89FF"/>
      <stop offset="100%" stop-color="#A055FF"/>
    </linearGradient>
    <!-- O+X gradient: blue to magenta (coordinates in path space = viewBox * 10) -->
    <linearGradient id="gradOX" x1="7000" y1="0" x2="22600" y2="0" gradientUnits="userSpaceOnUse">
      <stop offset="0%" stop-color="#3EA7FF"/>
      <stop offset="25%" stop-color="#5595FF"/>
      <stop offset="50%" stop-color="#7878FF"/>
      <stop offset="75%" stop-color="#A555FF"/>
      <stop offset="100%" stop-color="#C535FF"/>
    </linearGradient>
  </defs>
  <!-- V + sound waves -->
  <g transform="translate(0,926) scale(0.1,-0.1)" fill="url(#gradV)" stroke="none">
    <path d="M588 8893 c-131 -3 -168 -6 -168 -17 0 -18 75 -160 150 -286 35 -58
71 -119 80 -136 10 -17 39 -66 65 -109 26 -42 71 -118 100 -169 28 -50 82
-143 120 -206 37 -63 92 -158 123 -210 82 -143 252 -430 277 -470 25 -40 112
-187 163 -275 40 -70 53 -91 119 -205 28 -47 104 -177 170 -290 66 -113 141
-239 165 -280 107 -178 313 -526 318 -535 8 -15 132 -223 390 -655 131 -217
289 -485 352 -595 63 -110 194 -330 290 -490 231 -383 267 -444 288 -481 10
-17 38 -64 63 -105 24 -41 90 -155 147 -254 56 -99 119 -207 140 -240 30 -48
184 -305 260 -434 8 -14 41 -69 72 -121 31 -52 67 -115 81 -140 14 -25 32 -46
40 -48 9 -2 32 27 62 80 26 46 123 209 215 363 92 154 182 307 200 340 18 33
113 200 210 370 97 171 192 337 210 370 18 33 36 64 41 70 22 23 24 18 -131
285 -62 107 -121 209 -130 225 -53 91 -138 238 -215 370 -49 83 -107 184 -130
225 -209 372 -322 573 -345 615 -22 42 -64 113 -115 197 -11 18 -48 81 -112
193 -22 39 -76 135 -120 215 -71 128 -152 273 -223 395 -12 22 -43 78 -68 125
-25 47 -65 118 -90 159 -43 72 -55 93 -102 176 -52 93 -211 373 -303 535 -55
96 -111 195 -125 220 -14 25 -67 119 -118 208 -52 90 -94 166 -94 168 0 2 -24
43 -53 91 -30 49 -65 109 -79 133 -14 25 -50 88 -80 140 -30 52 -67 118 -83
145 -84 154 -178 315 -188 323 -12 10 -1514 22 -1839 15z
M6362 8878 c-7 -7
-12 -17 -12 -22 0 -6 -36 -76 -80 -155 -44 -79 -80 -146 -80 -149 0 -2 -8 -16
-19 -30 -10 -15 -51 -90 -91 -167 -40 -77 -81 -152 -92 -167 -10 -14 -18 -28
-18 -31 0 -2 -50 -92 -112 -198 -61 -107 -122 -213 -135 -237 -12 -23 -39 -67
-58 -97 -19 -31 -35 -57 -35 -59 0 -4 -160 -289 -169 -301 -5 -5 -24 -40 -45
-77 -20 -38 -52 -98 -73 -135 -20 -38 -44 -80 -55 -95 -10 -14 -18 -28 -18
-31 0 -2 -55 -103 -123 -223 -68 -121 -148 -264 -178 -319 -30 -55 -58 -108
-64 -117 -5 -9 -36 -68 -69 -130 -32 -62 -67 -125 -77 -140 -11 -14 -33 -54
-50 -88 l-30 -61 24 -42 c56 -97 358 -605 504 -847 54 -91 133 -222 174 -293
40 -70 102 -173 137 -230 35 -56 72 -117 83 -136 20 -34 21 -34 38 -15 10 10
34 48 53 84 51 94 99 177 141 243 20 31 37 60 37 62 0 3 15 29 34 58 18 28 86
140 150 247 64 107 121 202 126 210 5 8 46 78 90 155 44 77 85 147 90 155 15
24 57 95 145 245 45 77 148 250 227 385 80 135 174 295 208 355 35 61 101 173
148 250 47 77 106 176 132 220 25 44 150 253 277 465 127 212 255 428 285 480
30 52 104 178 163 280 59 102 113 194 119 205 6 11 19 31 27 45 46 72 210 352
232 397 23 44 24 52 11 57 -9 3 -453 6 -988 6 -743 0 -975 -3 -984 -12z
M2255 2566 c-17 -7 -50 -35 -72 -61 -52 -58 -59 -98 -39 -225 42
-266 81 -418 151 -585 215 -520 570 -906 1050 -1140 337 -165 547 -221 916
-246 165 -10 276 -5 439 22 63 10 82 14 200 40 142 31 292 81 408 135 41 19
75 34 77 34 4 0 153 86 225 131 192 118 426 326 573 509 128 160 245 363 312
542 63 171 130 469 141 636 8 107 -6 147 -67 191 -35 26 -51 31 -99 31 -104 0
-153 -67 -170 -233 -23 -233 -73 -400 -182 -621 -88 -177 -196 -326 -346 -480
-268 -272 -558 -435 -975 -546 -293 -78 -702 -56 -1033 55 -340 114 -690 370
-926 675 -184 239 -331 621 -356 927 -8 87 -13 107 -35 137 -52 68 -134 99
-192 72z
M2999 2556 c-19 -13 -48 -43 -64 -65 -38 -56 -43 -119 -17 -252 71
-357 294 -685 611 -898 142 -96 367 -188 565 -233 209 -46 516 -32 729 33 418
128 754 403 935 765 85 171 135 345 136 475 1 78 -1 89 -27 127 -55 78 -157
95 -232 37 -53 -39 -70 -74 -90 -178 -30 -154 -88 -298 -168 -417 -155 -229
-407 -409 -672 -480 -184 -48 -357 -63 -477 -40 -29 6 -78 15 -108 21 -181 36
-360 132 -528 284 -69 62 -210 251 -256 342 -43 87 -86 245 -85 313 1 41 -4
57 -32 96 -38 52 -105 93 -154 94 -17 0 -46 -11 -66 -24z"/>
  </g>
  <!-- O + O-waves + X -->
  <g transform="translate(0,926) scale(0.1,-0.1)" fill="url(#gradOX)" stroke="none">
    <path d="M11100 8218 c-188 -15 -523 -71 -650 -107 -465 -133 -590 -184 -940 -379 -167
-93 -240 -140 -365 -233 -54 -41 -118 -89 -144 -107 -150 -109 -456 -415 -619
-619 -127 -160 -202 -269 -271 -393 -258 -465 -388 -853 -473 -1410 -32 -210
-33 -222 -32 -530 0 -173 4 -358 8 -412 7 -87 10 -97 29 -102 12 -3 185 -6
384 -6 l363 0 4 -22 c3 -13 10 -72 16 -133 42 -405 273 -951 552 -1301 207
-261 396 -447 592 -585 27 -19 67 -47 90 -63 111 -80 529 -308 601 -328 11 -4
58 -20 105 -36 159 -57 363 -104 610 -143 112 -17 184 -21 420 -22 265 -1 297
1 460 26 96 15 195 32 220 37 25 6 68 14 95 20 49 9 123 29 258 69 150 44 483
198 637 295 305 191 644 495 822 736 142 193 175 244 242 377 167 331 239 546
307 918 34 185 4 165 236 158 109 -3 273 -2 366 2 147 6 169 9 177 25 15 28
40 345 41 514 1 208 -42 601 -91 826 -79 365 -162 613 -297 887 -129 264 -183
351 -382 621 -208 283 -575 620 -890 821 -277 176 -594 330 -816 395 -44 13
-111 34 -150 45 -103 31 -390 99 -465 110 -36 6 -92 15 -125 20 -193 34 -683
49 -925 29z m733 -2004 c129 -33 232 -68 327 -112 78 -35 288 -168 320 -202 3
-3 39 -35 81 -72 151 -134 278 -303 373 -499 137 -284 190 -520 191 -844 0
-330 -65 -624 -202 -901 -179 -361 -520 -668 -893 -802 -258 -93 -376 -115
-605 -116 -292 -1 -490 45 -794 186 -80 37 -200 112 -266 166 -62 51 -219 205
-264 260 -259 314 -401 756 -401 1253 0 219 15 347 67 548 73 288 290 611 555
825 146 118 405 241 628 299 204 53 241 56 528 51 206 -4 218 -5 355 -40z
m-2491 -2320 c4 -17 19 -85 33 -150 36 -171 61 -245 125 -370 141 -276 342
-522 556 -682 86 -64 378 -242 398 -242 3 0 29 -11 58 -24 129 -59 347 -122
573 -165 90 -18 361 -24 525 -13 198 14 426 62 563 118 33 13 65 24 71 24 17
0 216 103 305 159 147 91 274 193 412 330 141 141 183 192 261 322 74 123 178
364 212 490 28 103 63 220 69 225 4 5 420 9 486 5 15 -1 14 -3 -17 -171 -26
-138 -72 -311 -102 -385 -4 -11 -16 -40 -25 -65 -67 -172 -160 -327 -330 -555
-209 -279 -485 -520 -791 -693 -72 -40 -329 -155 -414 -185 -140 -49 -268 -84
-435 -118 -347 -70 -815 -46 -1170 63 -418 127 -538 184 -857 408 -131 91
-426 386 -553 552 -37 49 -175 255 -175 262 0 2 -20 40 -45 84 -56 103 -126
272 -159 387 -48 169 -89 384 -77 404 10 15 57 18 280 17 l215 -1 8 -31z
M20061 8056 c-5 -6 -52 -76 -103 -156 -248 -382 -781 -1182 -959 -1440 -55
-80 -129 -188 -164 -241 -35 -52 -71 -101 -79 -109 -28 -22 -10 -46 -413 560
-27 41 -105 156 -172 255 -67 99 -143 213 -169 253 -40 63 -300 460 -486 742
-31 47 -64 95 -74 106 l-17 22 -1202 6 c-666 3 -1204 2 -1207 -2 -6 -11 244
-380 597 -881 29 -41 59 -84 67 -96 56 -82 149 -218 220 -320 144 -207 165
-238 226 -324 158 -223 332 -478 614 -901 76 -113 177 -261 225 -330 87 -123
148 -211 293 -425 42 -60 99 -142 129 -181 68 -92 68 -111 5 -195 -46 -61
-167 -234 -318 -456 -38 -56 -159 -231 -269 -388 -110 -157 -244 -349 -298
-428 -53 -78 -118 -169 -143 -202 -25 -33 -82 -116 -128 -185 -99 -151 -264
-390 -456 -660 -30 -43 -89 -126 -130 -185 -41 -59 -127 -182 -192 -274 -221
-315 -451 -672 -441 -682 10 -10 2317 -14 2333 -4 5 3 79 110 164 238 173 257
442 645 599 865 176 246 236 333 334 482 119 179 249 365 268 380 20 16 26 10
91 -83 32 -45 60 -84 64 -87 4 -3 9 -12 13 -20 7 -15 20 -34 198 -281 53 -74
122 -174 154 -224 112 -174 196 -298 350 -513 33 -46 159 -230 280 -410 195
-290 224 -328 255 -339 26 -8 332 -12 1162 -12 620 -1 1139 1 1153 5 15 4 25
13 25 24 0 11 -35 70 -78 132 -43 62 -133 192 -199 288 -66 96 -189 274 -274
395 -85 121 -185 265 -221 320 -83 123 -183 266 -264 377 -166 227 -259 360
-459 658 -120 179 -257 380 -304 448 -178 255 -216 310 -289 417 -106 155
-112 163 -162 230 -97 131 -180 257 -180 275 0 15 110 190 167 264 10 13 23
32 30 42 7 11 36 53 65 94 29 41 62 89 72 105 10 17 67 98 126 180 102 143
162 232 475 695 77 113 141 207 145 210 3 3 56 82 119 175 63 94 144 211 182
260 37 50 160 230 274 400 114 171 227 335 250 365 63 82 280 388 372 525 102
152 137 215 123 229 -6 6 -239 11 -652 13 -354 1 -882 5 -1175 7 -391 3 -535
1 -542 -8z"/>
  </g>
</svg>
